<svg width="800" height="320" xmlns="http://www.w3.org/2000/svg">
  <rect width="100%" height="100%" fill="#0d1117" rx="10"/>
  <rect x="30" y="25" width="740" height="270" fill="#161b22" rx="8" stroke="#30363d" stroke-width="1"/>
  
  <line x1="50" y1="70" x2="750" y2="70" stroke="#30363d" stroke-width="1"/>
  
  <text x="400" y="55" text-anchor="middle" font-family="Segoe UI, Arial" font-size="20" font-weight="600" fill="#c9d1d9">About Me</text>
  
  <text x="400" y="100" text-anchor="middle" font-family="Segoe UI, Arial" font-size="15" fill="#58a6ff">💼 Software Engineer Intern @ Microsoft</text>
  
  <circle cx="200" cy="140" r="4" fill="#58a6ff"/>
  <text x="220" y="145" font-family="Segoe UI, Arial" font-size="14" fill="#8b949e">CS @ Tanta University</text>
  
  <circle cx="450" cy="140" r="4" fill="#58a6ff"/>
  <text x="470" y="145" font-family="Segoe UI, Arial" font-size="14" fill="#8b949e">Egypt 🇪🇬</text>
  
  <circle cx="620" cy="140" r="4" fill="#58a6ff"/>
  <text x="640" y="145" font-family="Segoe UI, Arial" font-size="14" fill="#8b949e">Junior Year</text>
  
  <text x="50" y="185" font-family="Segoe UI, Arial" font-size="13" fill="#6e7681">SKILLS</text>
  <text x="120" y="185" font-family="Segoe UI, Arial" font-size="13" fill="#c9d1d9">Backend Development • .NET &amp; C# • Azure Cloud • Problem Solving</text>
  
  <text x="50" y="220" font-family="Segoe UI, Arial" font-size="13" fill="#6e7681">EXPLORING</text>
  <rect x="140" y="205" width="70" height="22" fill="#a371f7" fill-opacity="0.15" rx="11"/>
  <text x="175" y="221" text-anchor="middle" font-family="Segoe UI, Arial" font-size="12" fill="#a371f7">DevOps</text>
  <rect x="220" y="205" width="105" height="22" fill="#f78166" fill-opacity="0.15" rx="11"/>
  <text x="272" y="221" text-anchor="middle" font-family="Segoe UI, Arial" font-size="12" fill="#f78166">System Design</text>
  <rect x="335" y="205" width="80" height="22" fill="#58a6ff" fill-opacity="0.15" rx="11"/>
  <text x="375" y="221" text-anchor="middle" font-family="Segoe UI, Arial" font-size="12" fill="#58a6ff">AI Agents</text>
  
  <line x1="50" y1="250" x2="750" y2="250" stroke="#30363d" stroke-width="1"/>
  
  <text x="200" y="275" text-anchor="middle" font-family="Segoe UI, Arial" font-size="14" fill="#58a6ff">66 Followers</text>
  <text x="400" y="275" text-anchor="middle" font-family="Segoe UI, Arial" font-size="14" fill="#58a6ff">25 Repositories</text>
  <text x="600" y="275" text-anchor="middle" font-family="Segoe UI, Arial" font-size="14" fill="#58a6ff">16 Following</text>
</svg>