<svg width="800" height="180" xmlns="http://www.w3.org/2000/svg">
  <defs>
    <linearGradient id="bg4" x1="0%" y1="0%" x2="100%" y2="100%">
      <stop offset="0%" style="stop-color:#0d1117"/>
      <stop offset="100%" style="stop-color:#161b22"/>
    </linearGradient>
  </defs>
  <rect width="100%" height="100%" fill="url(#bg4)" rx="10"/>
  <polygon points="50,17 69.918,28.5 69.918,51.5 50,63 30.082,51.5 30.082,28.5" fill="none" stroke="#58a6ff" stroke-width="1" opacity="0.23"><animate attributeName="opacity" values="0.23;0.43000000000000005;0.23" dur="2s" repeatCount="indefinite"/></polygon><polygon points="120,58 139.052,69 139.052,91 120,102 100.94800000000001,91 100.94800000000001,69" fill="none" stroke="#58a6ff" stroke-width="1" opacity="0.29"><animate attributeName="opacity" values="0.29;0.49;0.29" dur="2.5s" repeatCount="indefinite"/></polygon><polygon points="700,31 716.454,40.5 716.454,59.5 700,69 683.546,59.5 683.546,40.5" fill="none" stroke="#58a6ff" stroke-width="1" opacity="0.26"><animate attributeName="opacity" values="0.26;0.46;0.26" dur="3s" repeatCount="indefinite"/></polygon><polygon points="750,102 765.588,111 765.588,129 750,138 734.412,129 734.412,111" fill="none" stroke="#58a6ff" stroke-width="1" opacity="0.25"><animate attributeName="opacity" values="0.25;0.45;0.25" dur="3.5s" repeatCount="indefinite"/></polygon><polygon points="380,134 393.856,142 393.856,158 380,166 366.144,158 366.144,142" fill="none" stroke="#58a6ff" stroke-width="1" opacity="0.24"><animate attributeName="opacity" values="0.24;0.44;0.24" dur="4s" repeatCount="indefinite"/></polygon><polygon points="620,10 637.32,20 637.32,40 620,50 602.68,40 602.68,20" fill="none" stroke="#58a6ff" stroke-width="1" opacity="0.21"><animate attributeName="opacity" values="0.21;0.41000000000000003;0.21" dur="4.5s" repeatCount="indefinite"/></polygon>
  <text x="400" y="55" text-anchor="middle" font-family="Segoe UI, Arial" font-size="36" font-weight="bold" fill="#ffffff">Good Evening! I'm Mohamed Raafat</text>
  <text x="400" y="90" text-anchor="middle" font-family="Segoe UI, Arial" font-size="18" fill="#8b949e">Software Engineer Intern @ Microsoft | .NET Developer</text>
  <text x="200" y="130" font-family="Segoe UI, Arial" font-size="14" fill="#58a6ff">👥 71 followers</text>
  <text x="400" y="130" font-family="Segoe UI, Arial" font-size="14" fill="#58a6ff">📦 30 repos</text>
  <text x="580" y="130" font-family="Segoe UI, Arial" font-size="14" fill="#58a6ff">⭐ 16 following</text>
</svg>