<svg width="800" height="180" xmlns="http://www.w3.org/2000/svg">
  <defs>
    <linearGradient id="bg4" x1="0%" y1="0%" x2="100%" y2="100%">
      <stop offset="0%" style="stop-color:#0d1117"/>
      <stop offset="100%" style="stop-color:#161b22"/>
    </linearGradient>
  </defs>
  <rect width="100%" height="100%" fill="url(#bg4)" rx="10"/>
  <polygon points="50,24 63.856,32 63.856,48 50,56 36.144,48 36.144,32" fill="none" stroke="#58a6ff" stroke-width="1" opacity="0.22"><animate attributeName="opacity" values="0.22;0.42000000000000004;0.22" dur="2s" repeatCount="indefinite"/></polygon><polygon points="120,64 133.856,72 133.856,88 120,96 106.144,88 106.144,72" fill="none" stroke="#58a6ff" stroke-width="1" opacity="0.29"><animate attributeName="opacity" values="0.29;0.49;0.29" dur="2.5s" repeatCount="indefinite"/></polygon><polygon points="700,26 720.784,38 720.784,62 700,74 679.216,62 679.216,38" fill="none" stroke="#58a6ff" stroke-width="1" opacity="0.30"><animate attributeName="opacity" values="0.30;0.5;0.30" dur="3s" repeatCount="indefinite"/></polygon><polygon points="750,101 766.454,110.5 766.454,129.5 750,139 733.546,129.5 733.546,110.5" fill="none" stroke="#58a6ff" stroke-width="1" opacity="0.14"><animate attributeName="opacity" values="0.14;0.34;0.14" dur="3.5s" repeatCount="indefinite"/></polygon><polygon points="380,132 395.588,141 395.588,159 380,168 364.412,159 364.412,141" fill="none" stroke="#58a6ff" stroke-width="1" opacity="0.18"><animate attributeName="opacity" values="0.18;0.38;0.18" dur="4s" repeatCount="indefinite"/></polygon><polygon points="620,11 636.454,20.5 636.454,39.5 620,49 603.546,39.5 603.546,20.5" fill="none" stroke="#58a6ff" stroke-width="1" opacity="0.30"><animate attributeName="opacity" values="0.30;0.5;0.30" dur="4.5s" repeatCount="indefinite"/></polygon>
  <text x="400" y="55" text-anchor="middle" font-family="Segoe UI, Arial" font-size="36" font-weight="bold" fill="#ffffff">Good Afternoon! I'm Mohamed Raafat</text>
  <text x="400" y="90" text-anchor="middle" font-family="Segoe UI, Arial" font-size="18" fill="#8b949e">Software Engineer Intern @ Microsoft | .NET Developer</text>
  <text x="200" y="130" font-family="Segoe UI, Arial" font-size="14" fill="#58a6ff">👥 81 followers</text>
  <text x="400" y="130" font-family="Segoe UI, Arial" font-size="14" fill="#58a6ff">📦 33 repos</text>
  <text x="580" y="130" font-family="Segoe UI, Arial" font-size="14" fill="#58a6ff">⭐ 18 following</text>
</svg>