<svg width="800" height="180" xmlns="http://www.w3.org/2000/svg">
  <defs>
    <linearGradient id="bg4" x1="0%" y1="0%" x2="100%" y2="100%">
      <stop offset="0%" style="stop-color:#0d1117"/>
      <stop offset="100%" style="stop-color:#161b22"/>
    </linearGradient>
  </defs>
  <rect width="100%" height="100%" fill="url(#bg4)" rx="10"/>
  <polygon points="50,16 70.78399999999999,28 70.78399999999999,52 50,64 29.216,52 29.216,28" fill="none" stroke="#58a6ff" stroke-width="1" opacity="0.15"><animate attributeName="opacity" values="0.15;0.35;0.15" dur="2s" repeatCount="indefinite"/></polygon><polygon points="120,58 139.052,69 139.052,91 120,102 100.94800000000001,91 100.94800000000001,69" fill="none" stroke="#58a6ff" stroke-width="1" opacity="0.24"><animate attributeName="opacity" values="0.24;0.44;0.24" dur="2.5s" repeatCount="indefinite"/></polygon><polygon points="700,35 712.99,42.5 712.99,57.5 700,65 687.01,57.5 687.01,42.5" fill="none" stroke="#58a6ff" stroke-width="1" opacity="0.22"><animate attributeName="opacity" values="0.22;0.42000000000000004;0.22" dur="3s" repeatCount="indefinite"/></polygon><polygon points="750,98 769.052,109 769.052,131 750,142 730.948,131 730.948,109" fill="none" stroke="#58a6ff" stroke-width="1" opacity="0.17"><animate attributeName="opacity" values="0.17;0.37;0.17" dur="3.5s" repeatCount="indefinite"/></polygon><polygon points="380,127 399.918,138.5 399.918,161.5 380,173 360.082,161.5 360.082,138.5" fill="none" stroke="#58a6ff" stroke-width="1" opacity="0.30"><animate attributeName="opacity" values="0.30;0.5;0.30" dur="4s" repeatCount="indefinite"/></polygon><polygon points="620,7 639.918,18.5 639.918,41.5 620,53 600.082,41.5 600.082,18.5" fill="none" stroke="#58a6ff" stroke-width="1" opacity="0.28"><animate attributeName="opacity" values="0.28;0.48000000000000004;0.28" dur="4.5s" repeatCount="indefinite"/></polygon>
  <text x="400" y="55" text-anchor="middle" font-family="Segoe UI, Arial" font-size="36" font-weight="bold" fill="#ffffff">Good Morning! I'm Mohamed Raafat</text>
  <text x="400" y="90" text-anchor="middle" font-family="Segoe UI, Arial" font-size="18" fill="#8b949e">Software Engineer Intern @ Microsoft | .NET Developer</text>
  <text x="200" y="130" font-family="Segoe UI, Arial" font-size="14" fill="#58a6ff">👥 72 followers</text>
  <text x="400" y="130" font-family="Segoe UI, Arial" font-size="14" fill="#58a6ff">📦 31 repos</text>
  <text x="580" y="130" font-family="Segoe UI, Arial" font-size="14" fill="#58a6ff">⭐ 18 following</text>
</svg>