<svg width="800" height="180" xmlns="http://www.w3.org/2000/svg">
  <defs>
    <linearGradient id="bg4" x1="0%" y1="0%" x2="100%" y2="100%">
      <stop offset="0%" style="stop-color:#0d1117"/>
      <stop offset="100%" style="stop-color:#161b22"/>
    </linearGradient>
  </defs>
  <rect width="100%" height="100%" fill="url(#bg4)" rx="10"/>
  <polygon points="50,23 64.722,31.5 64.722,48.5 50,57 35.278,48.5 35.278,31.5" fill="none" stroke="#58a6ff" stroke-width="1" opacity="0.26"><animate attributeName="opacity" values="0.26;0.46;0.26" dur="2s" repeatCount="indefinite"/></polygon><polygon points="120,58 139.052,69 139.052,91 120,102 100.94800000000001,91 100.94800000000001,69" fill="none" stroke="#58a6ff" stroke-width="1" opacity="0.22"><animate attributeName="opacity" values="0.22;0.42000000000000004;0.22" dur="2.5s" repeatCount="indefinite"/></polygon><polygon points="700,30 717.32,40 717.32,60 700,70 682.68,60 682.68,40" fill="none" stroke="#58a6ff" stroke-width="1" opacity="0.17"><animate attributeName="opacity" values="0.17;0.37;0.17" dur="3s" repeatCount="indefinite"/></polygon><polygon points="750,105 762.99,112.5 762.99,127.5 750,135 737.01,127.5 737.01,112.5" fill="none" stroke="#58a6ff" stroke-width="1" opacity="0.22"><animate attributeName="opacity" values="0.22;0.42000000000000004;0.22" dur="3.5s" repeatCount="indefinite"/></polygon><polygon points="380,134 393.856,142 393.856,158 380,166 366.144,158 366.144,142" fill="none" stroke="#58a6ff" stroke-width="1" opacity="0.19"><animate attributeName="opacity" values="0.19;0.39;0.19" dur="4s" repeatCount="indefinite"/></polygon><polygon points="620,12 635.588,21 635.588,39 620,48 604.412,39 604.412,21" fill="none" stroke="#58a6ff" stroke-width="1" opacity="0.17"><animate attributeName="opacity" values="0.17;0.37;0.17" dur="4.5s" repeatCount="indefinite"/></polygon>
  <text x="400" y="55" text-anchor="middle" font-family="Segoe UI, Arial" font-size="36" font-weight="bold" fill="#ffffff">Good Evening! I'm Mohamed Raafat</text>
  <text x="400" y="90" text-anchor="middle" font-family="Segoe UI, Arial" font-size="18" fill="#8b949e">Software Engineer Intern @ Microsoft | .NET Developer</text>
  <text x="200" y="130" font-family="Segoe UI, Arial" font-size="14" fill="#58a6ff">👥 80 followers</text>
  <text x="400" y="130" font-family="Segoe UI, Arial" font-size="14" fill="#58a6ff">📦 33 repos</text>
  <text x="580" y="130" font-family="Segoe UI, Arial" font-size="14" fill="#58a6ff">⭐ 18 following</text>
</svg>