<svg width="800" height="180" xmlns="http://www.w3.org/2000/svg">
  <defs>
    <linearGradient id="bg4" x1="0%" y1="0%" x2="100%" y2="100%">
      <stop offset="0%" style="stop-color:#0d1117"/>
      <stop offset="100%" style="stop-color:#161b22"/>
    </linearGradient>
  </defs>
  <rect width="100%" height="100%" fill="url(#bg4)" rx="10"/>
  <polygon points="50,18 69.05199999999999,29 69.05199999999999,51 50,62 30.948,51 30.948,29" fill="none" stroke="#58a6ff" stroke-width="1" opacity="0.29"><animate attributeName="opacity" values="0.29;0.49;0.29" dur="2s" repeatCount="indefinite"/></polygon><polygon points="120,57 139.918,68.5 139.918,91.5 120,103 100.082,91.5 100.082,68.5" fill="none" stroke="#58a6ff" stroke-width="1" opacity="0.13"><animate attributeName="opacity" values="0.13;0.33;0.13" dur="2.5s" repeatCount="indefinite"/></polygon><polygon points="700,33 714.722,41.5 714.722,58.5 700,67 685.278,58.5 685.278,41.5" fill="none" stroke="#58a6ff" stroke-width="1" opacity="0.22"><animate attributeName="opacity" values="0.22;0.42000000000000004;0.22" dur="3s" repeatCount="indefinite"/></polygon><polygon points="750,102 765.588,111 765.588,129 750,138 734.412,129 734.412,111" fill="none" stroke="#58a6ff" stroke-width="1" opacity="0.15"><animate attributeName="opacity" values="0.15;0.35;0.15" dur="3.5s" repeatCount="indefinite"/></polygon><polygon points="380,128 399.052,139 399.052,161 380,172 360.948,161 360.948,139" fill="none" stroke="#58a6ff" stroke-width="1" opacity="0.18"><animate attributeName="opacity" values="0.18;0.38;0.18" dur="4s" repeatCount="indefinite"/></polygon><polygon points="620,8 639.052,19 639.052,41 620,52 600.948,41 600.948,19" fill="none" stroke="#58a6ff" stroke-width="1" opacity="0.29"><animate attributeName="opacity" values="0.29;0.49;0.29" dur="4.5s" repeatCount="indefinite"/></polygon>
  <text x="400" y="55" text-anchor="middle" font-family="Segoe UI, Arial" font-size="36" font-weight="bold" fill="#ffffff">Good Afternoon! I'm Mohamed Raafat</text>
  <text x="400" y="90" text-anchor="middle" font-family="Segoe UI, Arial" font-size="18" fill="#8b949e">Software Engineer Intern @ Microsoft | .NET Developer</text>
  <text x="200" y="130" font-family="Segoe UI, Arial" font-size="14" fill="#58a6ff">👥 75 followers</text>
  <text x="400" y="130" font-family="Segoe UI, Arial" font-size="14" fill="#58a6ff">📦 32 repos</text>
  <text x="580" y="130" font-family="Segoe UI, Arial" font-size="14" fill="#58a6ff">⭐ 18 following</text>
</svg>