<svg width="800" height="180" xmlns="http://www.w3.org/2000/svg">
  <defs>
    <linearGradient id="bg4" x1="0%" y1="0%" x2="100%" y2="100%">
      <stop offset="0%" style="stop-color:#0d1117"/>
      <stop offset="100%" style="stop-color:#161b22"/>
    </linearGradient>
  </defs>
  <rect width="100%" height="100%" fill="url(#bg4)" rx="10"/>
  <polygon points="50,25 62.99,32.5 62.99,47.5 50,55 37.01,47.5 37.01,32.5" fill="none" stroke="#58a6ff" stroke-width="1" opacity="0.29"><animate attributeName="opacity" values="0.29;0.49;0.29" dur="2s" repeatCount="indefinite"/></polygon><polygon points="120,64 133.856,72 133.856,88 120,96 106.144,88 106.144,72" fill="none" stroke="#58a6ff" stroke-width="1" opacity="0.23"><animate attributeName="opacity" values="0.23;0.43000000000000005;0.23" dur="2.5s" repeatCount="indefinite"/></polygon><polygon points="700,33 714.722,41.5 714.722,58.5 700,67 685.278,58.5 685.278,41.5" fill="none" stroke="#58a6ff" stroke-width="1" opacity="0.26"><animate attributeName="opacity" values="0.26;0.46;0.26" dur="3s" repeatCount="indefinite"/></polygon><polygon points="750,102 765.588,111 765.588,129 750,138 734.412,129 734.412,111" fill="none" stroke="#58a6ff" stroke-width="1" opacity="0.28"><animate attributeName="opacity" values="0.28;0.48000000000000004;0.28" dur="3.5s" repeatCount="indefinite"/></polygon><polygon points="380,135 392.99,142.5 392.99,157.5 380,165 367.01,157.5 367.01,142.5" fill="none" stroke="#58a6ff" stroke-width="1" opacity="0.29"><animate attributeName="opacity" values="0.29;0.49;0.29" dur="4s" repeatCount="indefinite"/></polygon><polygon points="620,10 637.32,20 637.32,40 620,50 602.68,40 602.68,20" fill="none" stroke="#58a6ff" stroke-width="1" opacity="0.20"><animate attributeName="opacity" values="0.20;0.4;0.20" dur="4.5s" repeatCount="indefinite"/></polygon>
  <text x="400" y="55" text-anchor="middle" font-family="Segoe UI, Arial" font-size="36" font-weight="bold" fill="#ffffff">Good Evening! I'm Mohamed Raafat</text>
  <text x="400" y="90" text-anchor="middle" font-family="Segoe UI, Arial" font-size="18" fill="#8b949e">Software Engineer Intern @ Microsoft | .NET Developer</text>
  <text x="200" y="130" font-family="Segoe UI, Arial" font-size="14" fill="#58a6ff">👥 80 followers</text>
  <text x="400" y="130" font-family="Segoe UI, Arial" font-size="14" fill="#58a6ff">📦 33 repos</text>
  <text x="580" y="130" font-family="Segoe UI, Arial" font-size="14" fill="#58a6ff">⭐ 18 following</text>
</svg>