<svg width="800" height="180" xmlns="http://www.w3.org/2000/svg">
  <defs>
    <linearGradient id="bg4" x1="0%" y1="0%" x2="100%" y2="100%">
      <stop offset="0%" style="stop-color:#0d1117"/>
      <stop offset="100%" style="stop-color:#161b22"/>
    </linearGradient>
  </defs>
  <rect width="100%" height="100%" fill="url(#bg4)" rx="10"/>
  <polygon points="50,16 70.78399999999999,28 70.78399999999999,52 50,64 29.216,52 29.216,28" fill="none" stroke="#58a6ff" stroke-width="1" opacity="0.27"><animate attributeName="opacity" values="0.27;0.47000000000000003;0.27" dur="2s" repeatCount="indefinite"/></polygon><polygon points="120,56 140.784,68 140.784,92 120,104 99.21600000000001,92 99.21600000000001,68" fill="none" stroke="#58a6ff" stroke-width="1" opacity="0.24"><animate attributeName="opacity" values="0.24;0.44;0.24" dur="2.5s" repeatCount="indefinite"/></polygon><polygon points="700,31 716.454,40.5 716.454,59.5 700,69 683.546,59.5 683.546,40.5" fill="none" stroke="#58a6ff" stroke-width="1" opacity="0.19"><animate attributeName="opacity" values="0.19;0.39;0.19" dur="3s" repeatCount="indefinite"/></polygon><polygon points="750,102 765.588,111 765.588,129 750,138 734.412,129 734.412,111" fill="none" stroke="#58a6ff" stroke-width="1" opacity="0.12"><animate attributeName="opacity" values="0.12;0.32;0.12" dur="3.5s" repeatCount="indefinite"/></polygon><polygon points="380,130 397.32,140 397.32,160 380,170 362.68,160 362.68,140" fill="none" stroke="#58a6ff" stroke-width="1" opacity="0.18"><animate attributeName="opacity" values="0.18;0.38;0.18" dur="4s" repeatCount="indefinite"/></polygon><polygon points="620,15 632.99,22.5 632.99,37.5 620,45 607.01,37.5 607.01,22.5" fill="none" stroke="#58a6ff" stroke-width="1" opacity="0.16"><animate attributeName="opacity" values="0.16;0.36;0.16" dur="4.5s" repeatCount="indefinite"/></polygon>
  <text x="400" y="55" text-anchor="middle" font-family="Segoe UI, Arial" font-size="36" font-weight="bold" fill="#ffffff">Good Morning! I'm Mohamed Raafat</text>
  <text x="400" y="90" text-anchor="middle" font-family="Segoe UI, Arial" font-size="18" fill="#8b949e">Software Engineer Intern @ Microsoft | .NET Developer</text>
  <text x="200" y="130" font-family="Segoe UI, Arial" font-size="14" fill="#58a6ff">👥 80 followers</text>
  <text x="400" y="130" font-family="Segoe UI, Arial" font-size="14" fill="#58a6ff">📦 33 repos</text>
  <text x="580" y="130" font-family="Segoe UI, Arial" font-size="14" fill="#58a6ff">⭐ 18 following</text>
</svg>