<svg width="800" height="180" xmlns="http://www.w3.org/2000/svg">
  <defs>
    <linearGradient id="bg4" x1="0%" y1="0%" x2="100%" y2="100%">
      <stop offset="0%" style="stop-color:#0d1117"/>
      <stop offset="100%" style="stop-color:#161b22"/>
    </linearGradient>
  </defs>
  <rect width="100%" height="100%" fill="url(#bg4)" rx="10"/>
  <polygon points="50,16 70.78399999999999,28 70.78399999999999,52 50,64 29.216,52 29.216,28" fill="none" stroke="#58a6ff" stroke-width="1" opacity="0.23"><animate attributeName="opacity" values="0.23;0.43000000000000005;0.23" dur="2s" repeatCount="indefinite"/></polygon><polygon points="120,56 140.784,68 140.784,92 120,104 99.21600000000001,92 99.21600000000001,68" fill="none" stroke="#58a6ff" stroke-width="1" opacity="0.29"><animate attributeName="opacity" values="0.29;0.49;0.29" dur="2.5s" repeatCount="indefinite"/></polygon><polygon points="700,31 716.454,40.5 716.454,59.5 700,69 683.546,59.5 683.546,40.5" fill="none" stroke="#58a6ff" stroke-width="1" opacity="0.29"><animate attributeName="opacity" values="0.29;0.49;0.29" dur="3s" repeatCount="indefinite"/></polygon><polygon points="750,100 767.32,110 767.32,130 750,140 732.68,130 732.68,110" fill="none" stroke="#58a6ff" stroke-width="1" opacity="0.22"><animate attributeName="opacity" values="0.22;0.42000000000000004;0.22" dur="3.5s" repeatCount="indefinite"/></polygon><polygon points="380,126 400.784,138 400.784,162 380,174 359.216,162 359.216,138" fill="none" stroke="#58a6ff" stroke-width="1" opacity="0.18"><animate attributeName="opacity" values="0.18;0.38;0.18" dur="4s" repeatCount="indefinite"/></polygon><polygon points="620,7 639.918,18.5 639.918,41.5 620,53 600.082,41.5 600.082,18.5" fill="none" stroke="#58a6ff" stroke-width="1" opacity="0.20"><animate attributeName="opacity" values="0.20;0.4;0.20" dur="4.5s" repeatCount="indefinite"/></polygon>
  <text x="400" y="55" text-anchor="middle" font-family="Segoe UI, Arial" font-size="36" font-weight="bold" fill="#ffffff">Good Afternoon! I'm Mohamed Raafat</text>
  <text x="400" y="90" text-anchor="middle" font-family="Segoe UI, Arial" font-size="18" fill="#8b949e">Software Engineer Intern @ Microsoft | .NET Developer</text>
  <text x="200" y="130" font-family="Segoe UI, Arial" font-size="14" fill="#58a6ff">👥 71 followers</text>
  <text x="400" y="130" font-family="Segoe UI, Arial" font-size="14" fill="#58a6ff">📦 30 repos</text>
  <text x="580" y="130" font-family="Segoe UI, Arial" font-size="14" fill="#58a6ff">⭐ 16 following</text>
</svg>