<svg width="800" height="180" xmlns="http://www.w3.org/2000/svg">
  <defs>
    <linearGradient id="bg4" x1="0%" y1="0%" x2="100%" y2="100%">
      <stop offset="0%" style="stop-color:#0d1117"/>
      <stop offset="100%" style="stop-color:#161b22"/>
    </linearGradient>
  </defs>
  <rect width="100%" height="100%" fill="url(#bg4)" rx="10"/>
  <polygon points="50,16 70.78399999999999,28 70.78399999999999,52 50,64 29.216,52 29.216,28" fill="none" stroke="#58a6ff" stroke-width="1" opacity="0.30"><animate attributeName="opacity" values="0.30;0.5;0.30" dur="2s" repeatCount="indefinite"/></polygon><polygon points="120,59 138.186,69.5 138.186,90.5 120,101 101.814,90.5 101.814,69.5" fill="none" stroke="#58a6ff" stroke-width="1" opacity="0.12"><animate attributeName="opacity" values="0.12;0.32;0.12" dur="2.5s" repeatCount="indefinite"/></polygon><polygon points="700,35 712.99,42.5 712.99,57.5 700,65 687.01,57.5 687.01,42.5" fill="none" stroke="#58a6ff" stroke-width="1" opacity="0.22"><animate attributeName="opacity" values="0.22;0.42000000000000004;0.22" dur="3s" repeatCount="indefinite"/></polygon><polygon points="750,101 766.454,110.5 766.454,129.5 750,139 733.546,129.5 733.546,110.5" fill="none" stroke="#58a6ff" stroke-width="1" opacity="0.28"><animate attributeName="opacity" values="0.28;0.48000000000000004;0.28" dur="3.5s" repeatCount="indefinite"/></polygon><polygon points="380,128 399.052,139 399.052,161 380,172 360.948,161 360.948,139" fill="none" stroke="#58a6ff" stroke-width="1" opacity="0.28"><animate attributeName="opacity" values="0.28;0.48000000000000004;0.28" dur="4s" repeatCount="indefinite"/></polygon><polygon points="620,12 635.588,21 635.588,39 620,48 604.412,39 604.412,21" fill="none" stroke="#58a6ff" stroke-width="1" opacity="0.28"><animate attributeName="opacity" values="0.28;0.48000000000000004;0.28" dur="4.5s" repeatCount="indefinite"/></polygon>
  <text x="400" y="55" text-anchor="middle" font-family="Segoe UI, Arial" font-size="36" font-weight="bold" fill="#ffffff">Good Evening! I'm Mohamed Raafat</text>
  <text x="400" y="90" text-anchor="middle" font-family="Segoe UI, Arial" font-size="18" fill="#8b949e">Software Engineer Intern @ Microsoft | .NET Developer</text>
  <text x="200" y="130" font-family="Segoe UI, Arial" font-size="14" fill="#58a6ff">👥 71 followers</text>
  <text x="400" y="130" font-family="Segoe UI, Arial" font-size="14" fill="#58a6ff">📦 25 repos</text>
  <text x="580" y="130" font-family="Segoe UI, Arial" font-size="14" fill="#58a6ff">⭐ 16 following</text>
</svg>