<svg width="800" height="180" xmlns="http://www.w3.org/2000/svg">
  <defs>
    <linearGradient id="bg4" x1="0%" y1="0%" x2="100%" y2="100%">
      <stop offset="0%" style="stop-color:#0d1117"/>
      <stop offset="100%" style="stop-color:#161b22"/>
    </linearGradient>
  </defs>
  <rect width="100%" height="100%" fill="url(#bg4)" rx="10"/>
  <polygon points="50,22 65.588,31 65.588,49 50,58 34.412,49 34.412,31" fill="none" stroke="#58a6ff" stroke-width="1" opacity="0.16"><animate attributeName="opacity" values="0.16;0.36;0.16" dur="2s" repeatCount="indefinite"/></polygon><polygon points="120,63 134.722,71.5 134.722,88.5 120,97 105.278,88.5 105.278,71.5" fill="none" stroke="#58a6ff" stroke-width="1" opacity="0.10"><animate attributeName="opacity" values="0.10;0.30000000000000004;0.10" dur="2.5s" repeatCount="indefinite"/></polygon><polygon points="700,33 714.722,41.5 714.722,58.5 700,67 685.278,58.5 685.278,41.5" fill="none" stroke="#58a6ff" stroke-width="1" opacity="0.28"><animate attributeName="opacity" values="0.28;0.48000000000000004;0.28" dur="3s" repeatCount="indefinite"/></polygon><polygon points="750,101 766.454,110.5 766.454,129.5 750,139 733.546,129.5 733.546,110.5" fill="none" stroke="#58a6ff" stroke-width="1" opacity="0.15"><animate attributeName="opacity" values="0.15;0.35;0.15" dur="3.5s" repeatCount="indefinite"/></polygon><polygon points="380,135 392.99,142.5 392.99,157.5 380,165 367.01,157.5 367.01,142.5" fill="none" stroke="#58a6ff" stroke-width="1" opacity="0.29"><animate attributeName="opacity" values="0.29;0.49;0.29" dur="4s" repeatCount="indefinite"/></polygon><polygon points="620,9 638.186,19.5 638.186,40.5 620,51 601.814,40.5 601.814,19.5" fill="none" stroke="#58a6ff" stroke-width="1" opacity="0.10"><animate attributeName="opacity" values="0.10;0.30000000000000004;0.10" dur="4.5s" repeatCount="indefinite"/></polygon>
  <text x="400" y="55" text-anchor="middle" font-family="Segoe UI, Arial" font-size="36" font-weight="bold" fill="#ffffff">Good Morning! I'm Mohamed Raafat</text>
  <text x="400" y="90" text-anchor="middle" font-family="Segoe UI, Arial" font-size="18" fill="#8b949e">Software Engineer Intern @ Microsoft | .NET Developer</text>
  <text x="200" y="130" font-family="Segoe UI, Arial" font-size="14" fill="#58a6ff">👥 71 followers</text>
  <text x="400" y="130" font-family="Segoe UI, Arial" font-size="14" fill="#58a6ff">📦 31 repos</text>
  <text x="580" y="130" font-family="Segoe UI, Arial" font-size="14" fill="#58a6ff">⭐ 16 following</text>
</svg>