<svg width="800" height="180" xmlns="http://www.w3.org/2000/svg">
  <defs>
    <linearGradient id="bg4" x1="0%" y1="0%" x2="100%" y2="100%">
      <stop offset="0%" style="stop-color:#0d1117"/>
      <stop offset="100%" style="stop-color:#161b22"/>
    </linearGradient>
  </defs>
  <rect width="100%" height="100%" fill="url(#bg4)" rx="10"/>
  <polygon points="50,16 70.78399999999999,28 70.78399999999999,52 50,64 29.216,52 29.216,28" fill="none" stroke="#58a6ff" stroke-width="1" opacity="0.19"><animate attributeName="opacity" values="0.19;0.39;0.19" dur="2s" repeatCount="indefinite"/></polygon><polygon points="120,61 136.454,70.5 136.454,89.5 120,99 103.54599999999999,89.5 103.54599999999999,70.5" fill="none" stroke="#58a6ff" stroke-width="1" opacity="0.27"><animate attributeName="opacity" values="0.27;0.47000000000000003;0.27" dur="2.5s" repeatCount="indefinite"/></polygon><polygon points="700,28 719.052,39 719.052,61 700,72 680.948,61 680.948,39" fill="none" stroke="#58a6ff" stroke-width="1" opacity="0.21"><animate attributeName="opacity" values="0.21;0.41000000000000003;0.21" dur="3s" repeatCount="indefinite"/></polygon><polygon points="750,97 769.918,108.5 769.918,131.5 750,143 730.082,131.5 730.082,108.5" fill="none" stroke="#58a6ff" stroke-width="1" opacity="0.15"><animate attributeName="opacity" values="0.15;0.35;0.15" dur="3.5s" repeatCount="indefinite"/></polygon><polygon points="380,127 399.918,138.5 399.918,161.5 380,173 360.082,161.5 360.082,138.5" fill="none" stroke="#58a6ff" stroke-width="1" opacity="0.24"><animate attributeName="opacity" values="0.24;0.44;0.24" dur="4s" repeatCount="indefinite"/></polygon><polygon points="620,11 636.454,20.5 636.454,39.5 620,49 603.546,39.5 603.546,20.5" fill="none" stroke="#58a6ff" stroke-width="1" opacity="0.18"><animate attributeName="opacity" values="0.18;0.38;0.18" dur="4.5s" repeatCount="indefinite"/></polygon>
  <text x="400" y="55" text-anchor="middle" font-family="Segoe UI, Arial" font-size="36" font-weight="bold" fill="#ffffff">Good Evening! I'm Mohamed Raafat</text>
  <text x="400" y="90" text-anchor="middle" font-family="Segoe UI, Arial" font-size="18" fill="#8b949e">Software Engineer Intern @ Microsoft | .NET Developer</text>
  <text x="200" y="130" font-family="Segoe UI, Arial" font-size="14" fill="#58a6ff">👥 81 followers</text>
  <text x="400" y="130" font-family="Segoe UI, Arial" font-size="14" fill="#58a6ff">📦 33 repos</text>
  <text x="580" y="130" font-family="Segoe UI, Arial" font-size="14" fill="#58a6ff">⭐ 18 following</text>
</svg>