<svg width="800" height="180" xmlns="http://www.w3.org/2000/svg">
  <defs>
    <linearGradient id="bg4" x1="0%" y1="0%" x2="100%" y2="100%">
      <stop offset="0%" style="stop-color:#0d1117"/>
      <stop offset="100%" style="stop-color:#161b22"/>
    </linearGradient>
  </defs>
  <rect width="100%" height="100%" fill="url(#bg4)" rx="10"/>
  <polygon points="50,23 64.722,31.5 64.722,48.5 50,57 35.278,48.5 35.278,31.5" fill="none" stroke="#58a6ff" stroke-width="1" opacity="0.24"><animate attributeName="opacity" values="0.24;0.44;0.24" dur="2s" repeatCount="indefinite"/></polygon><polygon points="120,56 140.784,68 140.784,92 120,104 99.21600000000001,92 99.21600000000001,68" fill="none" stroke="#58a6ff" stroke-width="1" opacity="0.12"><animate attributeName="opacity" values="0.12;0.32;0.12" dur="2.5s" repeatCount="indefinite"/></polygon><polygon points="700,28 719.052,39 719.052,61 700,72 680.948,61 680.948,39" fill="none" stroke="#58a6ff" stroke-width="1" opacity="0.22"><animate attributeName="opacity" values="0.22;0.42000000000000004;0.22" dur="3s" repeatCount="indefinite"/></polygon><polygon points="750,97 769.918,108.5 769.918,131.5 750,143 730.082,131.5 730.082,108.5" fill="none" stroke="#58a6ff" stroke-width="1" opacity="0.18"><animate attributeName="opacity" values="0.18;0.38;0.18" dur="3.5s" repeatCount="indefinite"/></polygon><polygon points="380,126 400.784,138 400.784,162 380,174 359.216,162 359.216,138" fill="none" stroke="#58a6ff" stroke-width="1" opacity="0.26"><animate attributeName="opacity" values="0.26;0.46;0.26" dur="4s" repeatCount="indefinite"/></polygon><polygon points="620,6 640.784,18 640.784,42 620,54 599.216,42 599.216,18" fill="none" stroke="#58a6ff" stroke-width="1" opacity="0.24"><animate attributeName="opacity" values="0.24;0.44;0.24" dur="4.5s" repeatCount="indefinite"/></polygon>
  <text x="400" y="55" text-anchor="middle" font-family="Segoe UI, Arial" font-size="36" font-weight="bold" fill="#ffffff">Good Afternoon! I'm Mohamed Raafat</text>
  <text x="400" y="90" text-anchor="middle" font-family="Segoe UI, Arial" font-size="18" fill="#8b949e">Software Engineer Intern @ Microsoft | .NET Developer</text>
  <text x="200" y="130" font-family="Segoe UI, Arial" font-size="14" fill="#58a6ff">👥 71 followers</text>
  <text x="400" y="130" font-family="Segoe UI, Arial" font-size="14" fill="#58a6ff">📦 25 repos</text>
  <text x="580" y="130" font-family="Segoe UI, Arial" font-size="14" fill="#58a6ff">⭐ 16 following</text>
</svg>