<svg width="800" height="180" xmlns="http://www.w3.org/2000/svg">
  <defs>
    <linearGradient id="bg4" x1="0%" y1="0%" x2="100%" y2="100%">
      <stop offset="0%" style="stop-color:#0d1117"/>
      <stop offset="100%" style="stop-color:#161b22"/>
    </linearGradient>
  </defs>
  <rect width="100%" height="100%" fill="url(#bg4)" rx="10"/>
  <polygon points="50,23 64.722,31.5 64.722,48.5 50,57 35.278,48.5 35.278,31.5" fill="none" stroke="#58a6ff" stroke-width="1" opacity="0.23"><animate attributeName="opacity" values="0.23;0.43000000000000005;0.23" dur="2s" repeatCount="indefinite"/></polygon><polygon points="120,56 140.784,68 140.784,92 120,104 99.21600000000001,92 99.21600000000001,68" fill="none" stroke="#58a6ff" stroke-width="1" opacity="0.14"><animate attributeName="opacity" values="0.14;0.34;0.14" dur="2.5s" repeatCount="indefinite"/></polygon><polygon points="700,31 716.454,40.5 716.454,59.5 700,69 683.546,59.5 683.546,40.5" fill="none" stroke="#58a6ff" stroke-width="1" opacity="0.30"><animate attributeName="opacity" values="0.30;0.5;0.30" dur="3s" repeatCount="indefinite"/></polygon><polygon points="750,103 764.722,111.5 764.722,128.5 750,137 735.278,128.5 735.278,111.5" fill="none" stroke="#58a6ff" stroke-width="1" opacity="0.13"><animate attributeName="opacity" values="0.13;0.33;0.13" dur="3.5s" repeatCount="indefinite"/></polygon><polygon points="380,135 392.99,142.5 392.99,157.5 380,165 367.01,157.5 367.01,142.5" fill="none" stroke="#58a6ff" stroke-width="1" opacity="0.26"><animate attributeName="opacity" values="0.26;0.46;0.26" dur="4s" repeatCount="indefinite"/></polygon><polygon points="620,10 637.32,20 637.32,40 620,50 602.68,40 602.68,20" fill="none" stroke="#58a6ff" stroke-width="1" opacity="0.12"><animate attributeName="opacity" values="0.12;0.32;0.12" dur="4.5s" repeatCount="indefinite"/></polygon>
  <text x="400" y="55" text-anchor="middle" font-family="Segoe UI, Arial" font-size="36" font-weight="bold" fill="#ffffff">Good Afternoon! I'm Mohamed Raafat</text>
  <text x="400" y="90" text-anchor="middle" font-family="Segoe UI, Arial" font-size="18" fill="#8b949e">Software Engineer Intern @ Microsoft | .NET Developer</text>
  <text x="200" y="130" font-family="Segoe UI, Arial" font-size="14" fill="#58a6ff">👥 81 followers</text>
  <text x="400" y="130" font-family="Segoe UI, Arial" font-size="14" fill="#58a6ff">📦 33 repos</text>
  <text x="580" y="130" font-family="Segoe UI, Arial" font-size="14" fill="#58a6ff">⭐ 18 following</text>
</svg>