<svg width="800" height="180" xmlns="http://www.w3.org/2000/svg">
  <defs>
    <linearGradient id="bg4" x1="0%" y1="0%" x2="100%" y2="100%">
      <stop offset="0%" style="stop-color:#0d1117"/>
      <stop offset="100%" style="stop-color:#161b22"/>
    </linearGradient>
  </defs>
  <rect width="100%" height="100%" fill="url(#bg4)" rx="10"/>
  <polygon points="50,18 69.05199999999999,29 69.05199999999999,51 50,62 30.948,51 30.948,29" fill="none" stroke="#58a6ff" stroke-width="1" opacity="0.29"><animate attributeName="opacity" values="0.29;0.49;0.29" dur="2s" repeatCount="indefinite"/></polygon><polygon points="120,64 133.856,72 133.856,88 120,96 106.144,88 106.144,72" fill="none" stroke="#58a6ff" stroke-width="1" opacity="0.22"><animate attributeName="opacity" values="0.22;0.42000000000000004;0.22" dur="2.5s" repeatCount="indefinite"/></polygon><polygon points="700,34 713.856,42 713.856,58 700,66 686.144,58 686.144,42" fill="none" stroke="#58a6ff" stroke-width="1" opacity="0.19"><animate attributeName="opacity" values="0.19;0.39;0.19" dur="3s" repeatCount="indefinite"/></polygon><polygon points="750,97 769.918,108.5 769.918,131.5 750,143 730.082,131.5 730.082,108.5" fill="none" stroke="#58a6ff" stroke-width="1" opacity="0.26"><animate attributeName="opacity" values="0.26;0.46;0.26" dur="3.5s" repeatCount="indefinite"/></polygon><polygon points="380,130 397.32,140 397.32,160 380,170 362.68,160 362.68,140" fill="none" stroke="#58a6ff" stroke-width="1" opacity="0.17"><animate attributeName="opacity" values="0.17;0.37;0.17" dur="4s" repeatCount="indefinite"/></polygon><polygon points="620,9 638.186,19.5 638.186,40.5 620,51 601.814,40.5 601.814,19.5" fill="none" stroke="#58a6ff" stroke-width="1" opacity="0.20"><animate attributeName="opacity" values="0.20;0.4;0.20" dur="4.5s" repeatCount="indefinite"/></polygon>
  <text x="400" y="55" text-anchor="middle" font-family="Segoe UI, Arial" font-size="36" font-weight="bold" fill="#ffffff">Good Morning! I'm Mohamed Raafat</text>
  <text x="400" y="90" text-anchor="middle" font-family="Segoe UI, Arial" font-size="18" fill="#8b949e">Software Engineer Intern @ Microsoft | .NET Developer</text>
  <text x="200" y="130" font-family="Segoe UI, Arial" font-size="14" fill="#58a6ff">👥 81 followers</text>
  <text x="400" y="130" font-family="Segoe UI, Arial" font-size="14" fill="#58a6ff">📦 33 repos</text>
  <text x="580" y="130" font-family="Segoe UI, Arial" font-size="14" fill="#58a6ff">⭐ 18 following</text>
</svg>