<svg width="800" height="180" xmlns="http://www.w3.org/2000/svg">
  <defs>
    <linearGradient id="bg4" x1="0%" y1="0%" x2="100%" y2="100%">
      <stop offset="0%" style="stop-color:#0d1117"/>
      <stop offset="100%" style="stop-color:#161b22"/>
    </linearGradient>
  </defs>
  <rect width="100%" height="100%" fill="url(#bg4)" rx="10"/>
  <polygon points="50,18 69.05199999999999,29 69.05199999999999,51 50,62 30.948,51 30.948,29" fill="none" stroke="#58a6ff" stroke-width="1" opacity="0.16"><animate attributeName="opacity" values="0.16;0.36;0.16" dur="2s" repeatCount="indefinite"/></polygon><polygon points="120,63 134.722,71.5 134.722,88.5 120,97 105.278,88.5 105.278,71.5" fill="none" stroke="#58a6ff" stroke-width="1" opacity="0.25"><animate attributeName="opacity" values="0.25;0.45;0.25" dur="2.5s" repeatCount="indefinite"/></polygon><polygon points="700,27 719.918,38.5 719.918,61.5 700,73 680.082,61.5 680.082,38.5" fill="none" stroke="#58a6ff" stroke-width="1" opacity="0.20"><animate attributeName="opacity" values="0.20;0.4;0.20" dur="3s" repeatCount="indefinite"/></polygon><polygon points="750,98 769.052,109 769.052,131 750,142 730.948,131 730.948,109" fill="none" stroke="#58a6ff" stroke-width="1" opacity="0.28"><animate attributeName="opacity" values="0.28;0.48000000000000004;0.28" dur="3.5s" repeatCount="indefinite"/></polygon><polygon points="380,132 395.588,141 395.588,159 380,168 364.412,159 364.412,141" fill="none" stroke="#58a6ff" stroke-width="1" opacity="0.26"><animate attributeName="opacity" values="0.26;0.46;0.26" dur="4s" repeatCount="indefinite"/></polygon><polygon points="620,10 637.32,20 637.32,40 620,50 602.68,40 602.68,20" fill="none" stroke="#58a6ff" stroke-width="1" opacity="0.24"><animate attributeName="opacity" values="0.24;0.44;0.24" dur="4.5s" repeatCount="indefinite"/></polygon>
  <text x="400" y="55" text-anchor="middle" font-family="Segoe UI, Arial" font-size="36" font-weight="bold" fill="#ffffff">Good Afternoon! I'm Mohamed Raafat</text>
  <text x="400" y="90" text-anchor="middle" font-family="Segoe UI, Arial" font-size="18" fill="#8b949e">Software Engineer Intern @ Microsoft | .NET Developer</text>
  <text x="200" y="130" font-family="Segoe UI, Arial" font-size="14" fill="#58a6ff">👥 81 followers</text>
  <text x="400" y="130" font-family="Segoe UI, Arial" font-size="14" fill="#58a6ff">📦 33 repos</text>
  <text x="580" y="130" font-family="Segoe UI, Arial" font-size="14" fill="#58a6ff">⭐ 18 following</text>
</svg>