<svg width="800" height="180" xmlns="http://www.w3.org/2000/svg">
  <defs>
    <linearGradient id="bg4" x1="0%" y1="0%" x2="100%" y2="100%">
      <stop offset="0%" style="stop-color:#0d1117"/>
      <stop offset="100%" style="stop-color:#161b22"/>
    </linearGradient>
  </defs>
  <rect width="100%" height="100%" fill="url(#bg4)" rx="10"/>
  <polygon points="50,17 69.918,28.5 69.918,51.5 50,63 30.082,51.5 30.082,28.5" fill="none" stroke="#58a6ff" stroke-width="1" opacity="0.19"><animate attributeName="opacity" values="0.19;0.39;0.19" dur="2s" repeatCount="indefinite"/></polygon><polygon points="120,56 140.784,68 140.784,92 120,104 99.21600000000001,92 99.21600000000001,68" fill="none" stroke="#58a6ff" stroke-width="1" opacity="0.12"><animate attributeName="opacity" values="0.12;0.32;0.12" dur="2.5s" repeatCount="indefinite"/></polygon><polygon points="700,30 717.32,40 717.32,60 700,70 682.68,60 682.68,40" fill="none" stroke="#58a6ff" stroke-width="1" opacity="0.25"><animate attributeName="opacity" values="0.25;0.45;0.25" dur="3s" repeatCount="indefinite"/></polygon><polygon points="750,101 766.454,110.5 766.454,129.5 750,139 733.546,129.5 733.546,110.5" fill="none" stroke="#58a6ff" stroke-width="1" opacity="0.16"><animate attributeName="opacity" values="0.16;0.36;0.16" dur="3.5s" repeatCount="indefinite"/></polygon><polygon points="380,126 400.784,138 400.784,162 380,174 359.216,162 359.216,138" fill="none" stroke="#58a6ff" stroke-width="1" opacity="0.20"><animate attributeName="opacity" values="0.20;0.4;0.20" dur="4s" repeatCount="indefinite"/></polygon><polygon points="620,9 638.186,19.5 638.186,40.5 620,51 601.814,40.5 601.814,19.5" fill="none" stroke="#58a6ff" stroke-width="1" opacity="0.11"><animate attributeName="opacity" values="0.11;0.31;0.11" dur="4.5s" repeatCount="indefinite"/></polygon>
  <text x="400" y="55" text-anchor="middle" font-family="Segoe UI, Arial" font-size="36" font-weight="bold" fill="#ffffff">Good Morning! I'm Mohamed Raafat</text>
  <text x="400" y="90" text-anchor="middle" font-family="Segoe UI, Arial" font-size="18" fill="#8b949e">Software Engineer Intern @ Microsoft | .NET Developer</text>
  <text x="200" y="130" font-family="Segoe UI, Arial" font-size="14" fill="#58a6ff">👥 71 followers</text>
  <text x="400" y="130" font-family="Segoe UI, Arial" font-size="14" fill="#58a6ff">📦 31 repos</text>
  <text x="580" y="130" font-family="Segoe UI, Arial" font-size="14" fill="#58a6ff">⭐ 16 following</text>
</svg>