<svg width="800" height="180" xmlns="http://www.w3.org/2000/svg">
  <defs>
    <linearGradient id="bg4" x1="0%" y1="0%" x2="100%" y2="100%">
      <stop offset="0%" style="stop-color:#0d1117"/>
      <stop offset="100%" style="stop-color:#161b22"/>
    </linearGradient>
  </defs>
  <rect width="100%" height="100%" fill="url(#bg4)" rx="10"/>
  <polygon points="50,24 63.856,32 63.856,48 50,56 36.144,48 36.144,32" fill="none" stroke="#58a6ff" stroke-width="1" opacity="0.24"><animate attributeName="opacity" values="0.24;0.44;0.24" dur="2s" repeatCount="indefinite"/></polygon><polygon points="120,57 139.918,68.5 139.918,91.5 120,103 100.082,91.5 100.082,68.5" fill="none" stroke="#58a6ff" stroke-width="1" opacity="0.25"><animate attributeName="opacity" values="0.25;0.45;0.25" dur="2.5s" repeatCount="indefinite"/></polygon><polygon points="700,32 715.588,41 715.588,59 700,68 684.412,59 684.412,41" fill="none" stroke="#58a6ff" stroke-width="1" opacity="0.14"><animate attributeName="opacity" values="0.14;0.34;0.14" dur="3s" repeatCount="indefinite"/></polygon><polygon points="750,103 764.722,111.5 764.722,128.5 750,137 735.278,128.5 735.278,111.5" fill="none" stroke="#58a6ff" stroke-width="1" opacity="0.19"><animate attributeName="opacity" values="0.19;0.39;0.19" dur="3.5s" repeatCount="indefinite"/></polygon><polygon points="380,130 397.32,140 397.32,160 380,170 362.68,160 362.68,140" fill="none" stroke="#58a6ff" stroke-width="1" opacity="0.28"><animate attributeName="opacity" values="0.28;0.48000000000000004;0.28" dur="4s" repeatCount="indefinite"/></polygon><polygon points="620,12 635.588,21 635.588,39 620,48 604.412,39 604.412,21" fill="none" stroke="#58a6ff" stroke-width="1" opacity="0.15"><animate attributeName="opacity" values="0.15;0.35;0.15" dur="4.5s" repeatCount="indefinite"/></polygon>
  <text x="400" y="55" text-anchor="middle" font-family="Segoe UI, Arial" font-size="36" font-weight="bold" fill="#ffffff">Good Morning! I'm Mohamed Raafat</text>
  <text x="400" y="90" text-anchor="middle" font-family="Segoe UI, Arial" font-size="18" fill="#8b949e">Software Engineer Intern @ Microsoft | .NET Developer</text>
  <text x="200" y="130" font-family="Segoe UI, Arial" font-size="14" fill="#58a6ff">👥 71 followers</text>
  <text x="400" y="130" font-family="Segoe UI, Arial" font-size="14" fill="#58a6ff">📦 25 repos</text>
  <text x="580" y="130" font-family="Segoe UI, Arial" font-size="14" fill="#58a6ff">⭐ 16 following</text>
</svg>