<svg width="800" height="180" xmlns="http://www.w3.org/2000/svg">
  <defs>
    <linearGradient id="bg4" x1="0%" y1="0%" x2="100%" y2="100%">
      <stop offset="0%" style="stop-color:#0d1117"/>
      <stop offset="100%" style="stop-color:#161b22"/>
    </linearGradient>
  </defs>
  <rect width="100%" height="100%" fill="url(#bg4)" rx="10"/>
  <polygon points="50,21 66.45400000000001,30.5 66.45400000000001,49.5 50,59 33.546,49.5 33.546,30.5" fill="none" stroke="#58a6ff" stroke-width="1" opacity="0.13"><animate attributeName="opacity" values="0.13;0.33;0.13" dur="2s" repeatCount="indefinite"/></polygon><polygon points="120,63 134.722,71.5 134.722,88.5 120,97 105.278,88.5 105.278,71.5" fill="none" stroke="#58a6ff" stroke-width="1" opacity="0.17"><animate attributeName="opacity" values="0.17;0.37;0.17" dur="2.5s" repeatCount="indefinite"/></polygon><polygon points="700,35 712.99,42.5 712.99,57.5 700,65 687.01,57.5 687.01,42.5" fill="none" stroke="#58a6ff" stroke-width="1" opacity="0.16"><animate attributeName="opacity" values="0.16;0.36;0.16" dur="3s" repeatCount="indefinite"/></polygon><polygon points="750,104 763.856,112 763.856,128 750,136 736.144,128 736.144,112" fill="none" stroke="#58a6ff" stroke-width="1" opacity="0.19"><animate attributeName="opacity" values="0.19;0.39;0.19" dur="3.5s" repeatCount="indefinite"/></polygon><polygon points="380,133 394.722,141.5 394.722,158.5 380,167 365.278,158.5 365.278,141.5" fill="none" stroke="#58a6ff" stroke-width="1" opacity="0.21"><animate attributeName="opacity" values="0.21;0.41000000000000003;0.21" dur="4s" repeatCount="indefinite"/></polygon><polygon points="620,10 637.32,20 637.32,40 620,50 602.68,40 602.68,20" fill="none" stroke="#58a6ff" stroke-width="1" opacity="0.19"><animate attributeName="opacity" values="0.19;0.39;0.19" dur="4.5s" repeatCount="indefinite"/></polygon>
  <text x="400" y="55" text-anchor="middle" font-family="Segoe UI, Arial" font-size="36" font-weight="bold" fill="#ffffff">Good Morning! I'm Mohamed Raafat</text>
  <text x="400" y="90" text-anchor="middle" font-family="Segoe UI, Arial" font-size="18" fill="#8b949e">Software Engineer Intern @ Microsoft | .NET Developer</text>
  <text x="200" y="130" font-family="Segoe UI, Arial" font-size="14" fill="#58a6ff">👥 81 followers</text>
  <text x="400" y="130" font-family="Segoe UI, Arial" font-size="14" fill="#58a6ff">📦 33 repos</text>
  <text x="580" y="130" font-family="Segoe UI, Arial" font-size="14" fill="#58a6ff">⭐ 18 following</text>
</svg>