<svg width="800" height="180" xmlns="http://www.w3.org/2000/svg">
  <defs>
    <linearGradient id="bg4" x1="0%" y1="0%" x2="100%" y2="100%">
      <stop offset="0%" style="stop-color:#0d1117"/>
      <stop offset="100%" style="stop-color:#161b22"/>
    </linearGradient>
  </defs>
  <rect width="100%" height="100%" fill="url(#bg4)" rx="10"/>
  <polygon points="50,19 68.186,29.5 68.186,50.5 50,61 31.814,50.5 31.814,29.5" fill="none" stroke="#58a6ff" stroke-width="1" opacity="0.28"><animate attributeName="opacity" values="0.28;0.48000000000000004;0.28" dur="2s" repeatCount="indefinite"/></polygon><polygon points="120,58 139.052,69 139.052,91 120,102 100.94800000000001,91 100.94800000000001,69" fill="none" stroke="#58a6ff" stroke-width="1" opacity="0.23"><animate attributeName="opacity" values="0.23;0.43000000000000005;0.23" dur="2.5s" repeatCount="indefinite"/></polygon><polygon points="700,28 719.052,39 719.052,61 700,72 680.948,61 680.948,39" fill="none" stroke="#58a6ff" stroke-width="1" opacity="0.26"><animate attributeName="opacity" values="0.26;0.46;0.26" dur="3s" repeatCount="indefinite"/></polygon><polygon points="750,100 767.32,110 767.32,130 750,140 732.68,130 732.68,110" fill="none" stroke="#58a6ff" stroke-width="1" opacity="0.23"><animate attributeName="opacity" values="0.23;0.43000000000000005;0.23" dur="3.5s" repeatCount="indefinite"/></polygon><polygon points="380,130 397.32,140 397.32,160 380,170 362.68,160 362.68,140" fill="none" stroke="#58a6ff" stroke-width="1" opacity="0.16"><animate attributeName="opacity" values="0.16;0.36;0.16" dur="4s" repeatCount="indefinite"/></polygon><polygon points="620,12 635.588,21 635.588,39 620,48 604.412,39 604.412,21" fill="none" stroke="#58a6ff" stroke-width="1" opacity="0.24"><animate attributeName="opacity" values="0.24;0.44;0.24" dur="4.5s" repeatCount="indefinite"/></polygon>
  <text x="400" y="55" text-anchor="middle" font-family="Segoe UI, Arial" font-size="36" font-weight="bold" fill="#ffffff">Good Morning! I'm Mohamed Raafat</text>
  <text x="400" y="90" text-anchor="middle" font-family="Segoe UI, Arial" font-size="18" fill="#8b949e">Software Engineer Intern @ Microsoft | .NET Developer</text>
  <text x="200" y="130" font-family="Segoe UI, Arial" font-size="14" fill="#58a6ff">👥 71 followers</text>
  <text x="400" y="130" font-family="Segoe UI, Arial" font-size="14" fill="#58a6ff">📦 30 repos</text>
  <text x="580" y="130" font-family="Segoe UI, Arial" font-size="14" fill="#58a6ff">⭐ 16 following</text>
</svg>