<svg width="800" height="180" xmlns="http://www.w3.org/2000/svg">
  <defs>
    <linearGradient id="bg4" x1="0%" y1="0%" x2="100%" y2="100%">
      <stop offset="0%" style="stop-color:#0d1117"/>
      <stop offset="100%" style="stop-color:#161b22"/>
    </linearGradient>
  </defs>
  <rect width="100%" height="100%" fill="url(#bg4)" rx="10"/>
  <polygon points="50,20 67.32,30 67.32,50 50,60 32.68,50 32.68,30" fill="none" stroke="#58a6ff" stroke-width="1" opacity="0.25"><animate attributeName="opacity" values="0.25;0.45;0.25" dur="2s" repeatCount="indefinite"/></polygon><polygon points="120,62 135.588,71 135.588,89 120,98 104.412,89 104.412,71" fill="none" stroke="#58a6ff" stroke-width="1" opacity="0.19"><animate attributeName="opacity" values="0.19;0.39;0.19" dur="2.5s" repeatCount="indefinite"/></polygon><polygon points="700,30 717.32,40 717.32,60 700,70 682.68,60 682.68,40" fill="none" stroke="#58a6ff" stroke-width="1" opacity="0.16"><animate attributeName="opacity" values="0.16;0.36;0.16" dur="3s" repeatCount="indefinite"/></polygon><polygon points="750,97 769.918,108.5 769.918,131.5 750,143 730.082,131.5 730.082,108.5" fill="none" stroke="#58a6ff" stroke-width="1" opacity="0.10"><animate attributeName="opacity" values="0.10;0.30000000000000004;0.10" dur="3.5s" repeatCount="indefinite"/></polygon><polygon points="380,126 400.784,138 400.784,162 380,174 359.216,162 359.216,138" fill="none" stroke="#58a6ff" stroke-width="1" opacity="0.18"><animate attributeName="opacity" values="0.18;0.38;0.18" dur="4s" repeatCount="indefinite"/></polygon><polygon points="620,15 632.99,22.5 632.99,37.5 620,45 607.01,37.5 607.01,22.5" fill="none" stroke="#58a6ff" stroke-width="1" opacity="0.13"><animate attributeName="opacity" values="0.13;0.33;0.13" dur="4.5s" repeatCount="indefinite"/></polygon>
  <text x="400" y="55" text-anchor="middle" font-family="Segoe UI, Arial" font-size="36" font-weight="bold" fill="#ffffff">Good Evening! I'm Mohamed Raafat</text>
  <text x="400" y="90" text-anchor="middle" font-family="Segoe UI, Arial" font-size="18" fill="#8b949e">Software Engineer Intern @ Microsoft | .NET Developer</text>
  <text x="200" y="130" font-family="Segoe UI, Arial" font-size="14" fill="#58a6ff">👥 80 followers</text>
  <text x="400" y="130" font-family="Segoe UI, Arial" font-size="14" fill="#58a6ff">📦 32 repos</text>
  <text x="580" y="130" font-family="Segoe UI, Arial" font-size="14" fill="#58a6ff">⭐ 18 following</text>
</svg>