<svg width="800" height="180" xmlns="http://www.w3.org/2000/svg">
  <defs>
    <linearGradient id="bg4" x1="0%" y1="0%" x2="100%" y2="100%">
      <stop offset="0%" style="stop-color:#0d1117"/>
      <stop offset="100%" style="stop-color:#161b22"/>
    </linearGradient>
  </defs>
  <rect width="100%" height="100%" fill="url(#bg4)" rx="10"/>
  <polygon points="50,23 64.722,31.5 64.722,48.5 50,57 35.278,48.5 35.278,31.5" fill="none" stroke="#58a6ff" stroke-width="1" opacity="0.21"><animate attributeName="opacity" values="0.21;0.41000000000000003;0.21" dur="2s" repeatCount="indefinite"/></polygon><polygon points="120,63 134.722,71.5 134.722,88.5 120,97 105.278,88.5 105.278,71.5" fill="none" stroke="#58a6ff" stroke-width="1" opacity="0.16"><animate attributeName="opacity" values="0.16;0.36;0.16" dur="2.5s" repeatCount="indefinite"/></polygon><polygon points="700,35 712.99,42.5 712.99,57.5 700,65 687.01,57.5 687.01,42.5" fill="none" stroke="#58a6ff" stroke-width="1" opacity="0.15"><animate attributeName="opacity" values="0.15;0.35;0.15" dur="3s" repeatCount="indefinite"/></polygon><polygon points="750,101 766.454,110.5 766.454,129.5 750,139 733.546,129.5 733.546,110.5" fill="none" stroke="#58a6ff" stroke-width="1" opacity="0.22"><animate attributeName="opacity" values="0.22;0.42000000000000004;0.22" dur="3.5s" repeatCount="indefinite"/></polygon><polygon points="380,126 400.784,138 400.784,162 380,174 359.216,162 359.216,138" fill="none" stroke="#58a6ff" stroke-width="1" opacity="0.21"><animate attributeName="opacity" values="0.21;0.41000000000000003;0.21" dur="4s" repeatCount="indefinite"/></polygon><polygon points="620,14 633.856,22 633.856,38 620,46 606.144,38 606.144,22" fill="none" stroke="#58a6ff" stroke-width="1" opacity="0.30"><animate attributeName="opacity" values="0.30;0.5;0.30" dur="4.5s" repeatCount="indefinite"/></polygon>
  <text x="400" y="55" text-anchor="middle" font-family="Segoe UI, Arial" font-size="36" font-weight="bold" fill="#ffffff">Good Morning! I'm Mohamed Raafat</text>
  <text x="400" y="90" text-anchor="middle" font-family="Segoe UI, Arial" font-size="18" fill="#8b949e">Software Engineer Intern @ Microsoft | .NET Developer</text>
  <text x="200" y="130" font-family="Segoe UI, Arial" font-size="14" fill="#58a6ff">👥 73 followers</text>
  <text x="400" y="130" font-family="Segoe UI, Arial" font-size="14" fill="#58a6ff">📦 26 repos</text>
  <text x="580" y="130" font-family="Segoe UI, Arial" font-size="14" fill="#58a6ff">⭐ 16 following</text>
</svg>