<svg width="800" height="180" xmlns="http://www.w3.org/2000/svg">
  <defs>
    <linearGradient id="bg4" x1="0%" y1="0%" x2="100%" y2="100%">
      <stop offset="0%" style="stop-color:#0d1117"/>
      <stop offset="100%" style="stop-color:#161b22"/>
    </linearGradient>
  </defs>
  <rect width="100%" height="100%" fill="url(#bg4)" rx="10"/>
  <polygon points="50,23 64.722,31.5 64.722,48.5 50,57 35.278,48.5 35.278,31.5" fill="none" stroke="#58a6ff" stroke-width="1" opacity="0.27"><animate attributeName="opacity" values="0.27;0.47000000000000003;0.27" dur="2s" repeatCount="indefinite"/></polygon><polygon points="120,62 135.588,71 135.588,89 120,98 104.412,89 104.412,71" fill="none" stroke="#58a6ff" stroke-width="1" opacity="0.14"><animate attributeName="opacity" values="0.14;0.34;0.14" dur="2.5s" repeatCount="indefinite"/></polygon><polygon points="700,31 716.454,40.5 716.454,59.5 700,69 683.546,59.5 683.546,40.5" fill="none" stroke="#58a6ff" stroke-width="1" opacity="0.22"><animate attributeName="opacity" values="0.22;0.42000000000000004;0.22" dur="3s" repeatCount="indefinite"/></polygon><polygon points="750,101 766.454,110.5 766.454,129.5 750,139 733.546,129.5 733.546,110.5" fill="none" stroke="#58a6ff" stroke-width="1" opacity="0.29"><animate attributeName="opacity" values="0.29;0.49;0.29" dur="3.5s" repeatCount="indefinite"/></polygon><polygon points="380,134 393.856,142 393.856,158 380,166 366.144,158 366.144,142" fill="none" stroke="#58a6ff" stroke-width="1" opacity="0.11"><animate attributeName="opacity" values="0.11;0.31;0.11" dur="4s" repeatCount="indefinite"/></polygon><polygon points="620,14 633.856,22 633.856,38 620,46 606.144,38 606.144,22" fill="none" stroke="#58a6ff" stroke-width="1" opacity="0.10"><animate attributeName="opacity" values="0.10;0.30000000000000004;0.10" dur="4.5s" repeatCount="indefinite"/></polygon>
  <text x="400" y="55" text-anchor="middle" font-family="Segoe UI, Arial" font-size="36" font-weight="bold" fill="#ffffff">Good Morning! I'm Mohamed Raafat</text>
  <text x="400" y="90" text-anchor="middle" font-family="Segoe UI, Arial" font-size="18" fill="#8b949e">Software Engineer Intern @ Microsoft | .NET Developer</text>
  <text x="200" y="130" font-family="Segoe UI, Arial" font-size="14" fill="#58a6ff">👥 undefined followers</text>
  <text x="400" y="130" font-family="Segoe UI, Arial" font-size="14" fill="#58a6ff">📦 undefined repos</text>
  <text x="580" y="130" font-family="Segoe UI, Arial" font-size="14" fill="#58a6ff">⭐ undefined following</text>
</svg>